Coordinates
version=1
nRows=22
nColumns=24
inDegrees=yes

Units are S.I. units (second, meters, Newtons, ...)
Angles are in degrees.

endheader
time	pelvis_tilt	pelvis_list	pelvis_rotation	pelvis_tx	pelvis_ty	pelvis_tz	hip_flexion_r	hip_adduction_r	hip_rotation_r	knee_angle_r	ankle_angle_r	subtalar_angle_r	mtp_angle_r	hip_flexion_l	hip_adduction_l	hip_rotation_l	knee_angle_l	ankle_angle_l	subtalar_angle_l	mtp_angle_l	lumbar_extension	lumbar_bending	lumbar_rotation
      5.89500000	     -2.51011443	     10.03745218	     -7.00839771	      1.87182826	      1.01455571	     -0.22460565	      7.81800596	    -14.27547009	     -4.25303197	    -60.29643365	    -12.54265160	     -0.10858478	      0.00000000	     18.50423719	     11.78184961	     -6.48147367	    -15.66729798	      7.29771661	     -9.21846577	      0.00000000	     -6.57543080	    -12.85879644	      3.24161280
      5.90000000	     -2.43198795	     10.18331558	     -7.08796568	      1.87810400	      1.01529754	     -0.22486666	      8.64244123	    -14.40950689	     -4.03823463	    -61.34545368	    -11.83777933	     -0.29010581	      0.00000000	     17.90763895	     12.02061036	     -6.45425990	    -15.35938817	      7.56142731	     -9.16790898	      0.00000000	     -6.64225629	    -13.00047490	      3.13548160
      5.90500000	     -2.35655038	     10.27152686	     -7.16405632	      1.88443113	      1.01610672	     -0.22513347	      9.43782116	    -14.46575794	     -3.82663041	    -62.29237509	    -10.92013996	     -0.32937051	      0.00000000	     17.27347658	     12.20917202	     -6.36558335	    -15.00251175	      7.82872281	     -9.13249253	      0.00000000	     -6.69143183	    -13.06853001	      3.03169337
      5.91000000	     -2.28502355	     10.31145482	     -7.23042134	      1.89065114	      1.01696602	     -0.22540175	     10.22274108	    -14.45408100	     -3.62681818	    -63.15878052	     -9.81274431	     -0.25870418	      0.00000000	     16.63792108	     12.35226908	     -6.25122869	    -14.63933833	      8.03572068	     -9.13735975	      0.00000000	     -6.76395542	    -13.07638729	      2.92609704
      5.91500000	     -2.22019482	     10.31160224	     -7.27013957	      1.89685229	      1.01786735	     -0.22569210	     10.98585296	    -14.39380722	     -3.47370503	    -63.93068332	     -8.58666611	     -0.13031888	      0.00000000	     15.98686419	     12.46380459	     -6.08807306	    -14.24916844	      8.21642809	     -9.16416265	      0.00000000	     -6.83774414	    -13.03344122	      2.79937541
      5.92000000	     -2.14545360	     10.31673638	     -7.30226293	      1.90303810	      1.01878128	     -0.22606187	     11.73058761	    -14.34999651	     -3.36081509	    -64.62840677	     -7.25563552	      0.04095396	      0.00000000	     15.30788462	     12.59820381	     -5.86727851	    -13.81580962	      8.30435049	     -9.32519314	      0.00000000	     -6.92318516	    -12.98483218	      2.67058318
      5.92500000	     -2.08584015	     10.25651704	     -7.27719427	      1.90922821	      1.01974303	     -0.22645163	     12.43685376	    -14.23106973	     -3.32230413	    -65.21474140	     -5.88386807	      0.24323002	      0.00000000	     14.62026973	     12.67229123	     -5.57502017	    -13.37609968	      8.40952979	     -9.44161269	      0.00000000	     -7.00589315	    -12.85587595	      2.47811379
      5.93000000	     -2.03245281	     10.16935768	     -7.22017496	      1.91540801	      1.02071533	     -0.22687963	     13.12067734	    -14.08625588	     -3.33779644	    -65.71381194	     -4.49018491	      0.44866211	      0.00000000	     13.92014380	     12.72648997	     -5.22048314	    -12.91419528	      8.47335569	     -9.60125782	      0.00000000	     -7.08917606	    -12.69202420	      2.25916344
      5.93500000	     -1.98569678	     10.05295515	     -7.12897264	      1.92157077	      1.02169708	     -0.22735071	     13.78107773	    -13.91594849	     -3.41361483	    -66.12343015	     -3.11248075	      0.63162340	      0.00000000	     13.21170696	     12.75705716	     -4.80684287	    -12.43699447	      8.50356461	     -9.80416026	      0.00000000	     -7.17403078	    -12.48631822	      2.01509743
      5.94000000	     -1.95394046	      9.90420536	     -7.00239118	      1.92772005	      1.02267572	     -0.22784955	     14.42467833	    -13.71451920	     -3.54575465	    -66.44474575	     -1.76558715	      0.78849441	      0.00000000	     12.51180501	     12.75340255	     -4.37440084	    -11.96118930	      8.51361144	    -10.01171911	      0.00000000	     -7.25069211	    -12.23938394	      1.74806261
      5.94500000	     -1.91733743	      9.74736653	     -6.84987894	      1.93387269	      1.02364303	     -0.22840176	     15.04333761	    -13.51321844	     -3.72214803	    -66.68953450	     -0.49851008	      0.88817332	      0.00000000	     11.78134520	     12.74944608	     -3.81667626	    -11.44822875	      8.48675152	    -10.30433445	      0.00000000	     -7.33764906	    -11.97872998	      1.44074702
      5.95000000	     -1.89503701	      9.56040700	     -6.66733190	      1.94000395	      1.02460046	     -0.22896872	     15.64717591	    -13.28310442	     -3.94958305	    -66.84863192	      0.70191409	      0.94080266	      0.00000000	     11.06686993	     12.70719848	     -3.27353195	    -10.94724403	      8.45249995	    -10.57581902	      0.00000000	     -7.41633445	    -11.67945692	      1.12544434
      5.95500000	     -1.91627120	      9.32844303	     -6.52238151	      1.94603674	      1.02549637	     -0.22938779	     16.29737076	    -12.96447312	     -4.12451015	    -66.93762090	      1.82015357	      0.96334676	      0.00000000	     10.42578410	     12.58068168	     -2.87705934	    -10.49376203	      8.51229148	    -10.67419117	      0.00000000	     -7.45370613	    -11.34013400	      0.87767214
      5.96000000	     -1.88610384	      9.13987714	     -6.22561100	      1.95221811	      1.02642864	     -0.23017256	     16.82458532	    -12.78499911	     -4.52275769	    -66.93802510	      2.85465102	      0.89196351	      0.00000000	      9.66698935	     12.55594048	     -2.13277052	     -9.94711763	      8.35740985	    -11.11961126	      0.00000000	     -7.55069220	    -11.01886170	      0.44234641
      5.96500000	     -1.88710696	      8.90828563	     -5.98174061	      1.95830408	      1.02730591	     -0.23078723	     17.38800876	    -12.51623183	     -4.84625438	    -66.87155549	      3.82218289	      0.82184958	      0.00000000	      8.97208022	     12.44582303	     -1.56780429	     -9.44894326	      8.30759817	    -11.37073530	      0.00000000	     -7.61764801	    -10.66273077	      0.08905984
      5.97000000	     -1.90076386	      8.66696945	     -5.72009617	      1.96436191	      1.02813771	     -0.23140494	     17.94679194	    -12.23719815	     -5.19313756	    -66.73524400	      4.71722687	      0.71555484	      0.00000000	      8.29212097	     12.31543729	     -0.99660089	     -8.95300547	      8.25668290	    -11.61254111	      0.00000000	     -7.67529007	    -10.29521824	     -0.27243956
      5.97500000	     -1.93334261	      8.40696698	     -5.45055964	      1.97040782	      1.02891613	     -0.23203406	     18.50710273	    -11.93651271	     -5.54727508	    -66.52910896	      5.56029153	      0.61945335	      0.00000000	      7.64153539	     12.15579590	     -0.49310960	     -8.46965178	      8.22801503	    -11.82370756	      0.00000000	     -7.71171827	     -9.89841758	     -0.65467655
      5.98000000	     -1.94917262	      8.15917654	     -5.16412283	      1.97641834	      1.02966843	     -0.23265050	     19.03572452	    -11.65374357	     -5.92649291	    -66.25889428	      6.36233245	      0.47931364	      0.00000000	      6.96060231	     12.00074286	      0.13390350	     -7.96331173	      8.15672560	    -12.07537328	      0.00000000	     -7.77603332	     -9.53000305	     -1.01293186
      5.98500000	     -1.98480432	      7.88887691	     -4.87506515	      1.98241029	      1.03037790	     -0.23325094	     19.56603554	    -11.33792527	     -6.29381731	    -65.91696330	      7.13570705	      0.38633490	      0.00000000	      6.31771805	     11.81063373	      0.65479140	     -7.47844118	      8.09831738	    -12.28709187	      0.00000000	     -7.81605593	     -9.12931694	     -1.39473756
      5.99000000	     -2.05050188	      7.61927800	     -4.67773200	      1.98832313	      1.03094472	     -0.23366529	     20.15390845	    -10.97039263	     -6.53275045	    -65.53589332	      7.92960710	      0.36010898	      0.00000000	      5.73637153	     11.59257528	      1.03501755	     -7.02247856	      8.15772974	    -12.37926606	      0.00000000	     -7.81613452	     -8.74890348	     -1.64340159
      5.99500000	     -2.02934891	      7.35546315	     -4.30361997	      1.99433907	      1.03162977	     -0.23441613	     20.56712475	    -10.71170567	     -7.01742371	    -65.05367552	      8.65638351	      0.24447674	      0.00000000	      4.99465825	     11.41543238	      1.82564093	     -6.47349427	      7.97149373	    -12.83248162	      0.00000000	     -7.92766422	     -8.34790129	     -2.10743839
      6.00000000	     -2.06598026	      7.07006657	     -4.00731498	      2.00025551	      1.03219154	     -0.23495993	     21.05601877	    -10.36743756	     -7.36411095	    -64.51880037	      9.40494213	      0.24133797	      0.00000000	      4.36528361	     11.18302115	      2.35122110	     -5.98728242	      7.90313693	    -13.08114252	      0.00000000	     -7.97328007	     -7.93649321	     -2.49540246
